# xmcd
#
# Track frame offsets:
#	150
#	14267
#	23989
#	43941
#	56230
#	65765
#	77033
#	88500
#	103320
#	127380
#	151235
#	166936
#	182366
#	199993
#	220211
#	230087
#	246333
#	261126
#	279241
#	292419
#
# Disc length: 4262 seconds
#
# Revision: 0
# Processed by: cddbd v1.4PL0 Copyright (c) Steve Scherf et al.
# Submitted via: dBpowerAMP V4.0
#
DISCID=3510a414
DTITLE=Glen Cambell - Ultimate Legends
DYEAR=2001
DGENRE=Country
TTITLE0=Rhinestone Cowboy
TTITLE1=Gentle On My Mind
TTITLE2=Medley
TTITLE3=By The Time I gGet To Phoenix
TTITLE4=Dreams Of The Everyday Housewife
TTITLE5=Heartache Number Three
TTITLE6=It`s Only Make Believe
TTITLE7=Crying
TTITLE8=Bluegrass Medley
TTITLE9=Milkcow Blues
TTITLE10=Rollin` In My Sweet Baby`s Arms
TTITLE11=I`m So Lonsome I Could Cry
TTITLE12=Southern Nights
TTITLE13=Amazing Grace
TTITLE14=Try A Little Kindness
TTITLE15=Please Come To Boston
TTITLE16=In Your Loving Arms
TTITLE17=It`s Your World Boys And Girls
TTITLE18=Trials And Tribulations
TTITLE19=Mull Of Kintyre
EXTD=
EXTT0=
EXTT1=
EXTT2=
EXTT3=
EXTT4=
EXTT5=
EXTT6=
EXTT7=
EXTT8=
EXTT9=
EXTT10=
EXTT11=
EXTT12=
EXTT13=
EXTT14=
EXTT15=
EXTT16=
EXTT17=
EXTT18=
EXTT19=
PLAYORDER=
